<svg id="Capa_1" data-name="Capa 1" xmlns="http://www.w3.org/2000/svg" xmlns:xlink="http://www.w3.org/1999/xlink" viewBox="0 0 1920 1080"><defs><style>.cls-1,.cls-11{fill:none;}.cls-2{clip-path:url(#clip-path);}.cls-3{fill:url(#Degradado_sin_nombre_42);}.cls-4{fill:url(#Degradado_sin_nombre_46);}.cls-5{fill:url(#Degradado_sin_nombre_8);}.cls-6,.cls-7{opacity:0.3;}.cls-6{fill:url(#Degradado_sin_nombre_53);}.cls-7{fill:url(#Cielo);}.cls-8{fill:#10b8a1;}.cls-9{fill:#1b9396;}.cls-10{fill:#266d8a;}.cls-11{stroke:#000;stroke-miterlimit:10;}.cls-12{fill:#31487f;}.cls-13{fill:#3c2273;}</style><clipPath id="clip-path"><rect class="cls-1" y="-53" width="1930.42" height="1133.08" transform="translate(1930.42 1027.08) rotate(-180)"/></clipPath><linearGradient id="Degradado_sin_nombre_42" x1="1064.31" y1="1960.9" x2="1064.31" gradientTransform="translate(2128.61 1960.9) rotate(180)" gradientUnits="userSpaceOnUse"><stop offset="0" stop-color="#fff"/><stop offset="1" stop-color="#662d91"/></linearGradient><linearGradient id="Degradado_sin_nombre_46" x1="1048.7" y1="1146.9" x2="1048.7" y2="-810.39" gradientTransform="matrix(1, 0, 0, -1, 15.61, 1113.51)" gradientUnits="userSpaceOnUse"><stop offset="0.51" stop-color="#f7931e"/><stop offset="0.96" stop-color="#c1272d" stop-opacity="0.62"/></linearGradient><linearGradient id="Degradado_sin_nombre_8" x1="1176.6" y1="-102" x2="1176.6" y2="-469.03" gradientTransform="matrix(-1, 0, 0, 1, 2113, 777)" gradientUnits="userSpaceOnUse"><stop offset="0" stop-color="#f7931e"/><stop offset="1" stop-color="#c1272d"/></linearGradient><linearGradient id="Degradado_sin_nombre_53" x1="2003.62" y1="83.29" x2="2003.62" y2="-618.44" gradientTransform="matrix(-1, 0, 0, 1, 2113, 777)" gradientUnits="userSpaceOnUse"><stop offset="0" stop-color="#f7931e"/><stop offset="1" stop-color="#ffb900"/></linearGradient><linearGradient id="Cielo" x1="57.44" y1="448.87" x2="57.44" y2="-646.76" gradientTransform="matrix(-1, 0, 0, 1, 2113, 777)" gradientUnits="userSpaceOnUse"><stop offset="0" stop-color="#cce0f4"/><stop offset="0.06" stop-color="#c3dcf2"/><stop offset="0.17" stop-color="#a9d2ee"/><stop offset="0.31" stop-color="#80c2e7"/><stop offset="0.46" stop-color="#47acde"/><stop offset="0.57" stop-color="#1e9cd7"/><stop offset="0.87" stop-color="#0075be"/><stop offset="0.99" stop-color="#005b97"/></linearGradient></defs><title>bannerprincipal1</title><g id="Paisaje"><g class="cls-2"><rect id="fondo" class="cls-3" x="-319.38" width="2767.37" height="1960.9" transform="translate(2128.61 1960.9) rotate(-180)"/><rect id="fondo-2" data-name="fondo" class="cls-4" x="-319.38" y="-33.39" width="2767.37" height="1957.28" transform="translate(2128.61 1890.51) rotate(-180)"/><ellipse id="sol" class="cls-5" cx="936.4" cy="491.49" rx="181.12" ry="183.51"/><ellipse id="planeta" class="cls-6" cx="109.39" cy="509.43" rx="338.65" ry="350.86"/><ellipse id="Planeta-2" data-name="Planeta" class="cls-7" cx="2055.56" cy="678.06" rx="540.68" ry="547.81"/><g id="Montanas"><path class="cls-8" d="M697.5,564c45.08-27.79,66.91-44.9,88.55-58.93,21.31-13.95,42.45-24.81,78.46-38.24,8.75-3,81.37-30.19,85-29.21,5.34.81,8.44,5.05,10.73,9.81,9.29,19.37,7.2,48.44,21.07,68,13.07,16.88,42.09-17.81,60.49-7.7,45,23,106.54,42.72,179.37,64.7,73.15,21.87,157.63,46,255.92,75.18,12.31,3.63,24.74,3.9,37.09,8.5,10.82,4,20.28,9.56,30,14.7,95.44,50.67,236.87,70.23,387.16,89.27,38.83,4.9,82.68,10.47,114,19.9,40.11,12,42.11,26.82,18.2,37.92-37.77,17.56-121.24,27.2-198.22,35.22q-253.24,26.57-506.49,52.46c-267.54,26.7-540.24,53.19-787.25,56.36C463.83,963,306.94,973.8,241.37,943,188.06,917.12,284,848.23,351.71,799.55,476.48,710.17,593.89,627.54,697.5,564Z"/><path class="cls-8" d="M-6.7,1362.95c-95.48-30.34-127.76-19.32-159.82-85.58-3.91-6.26-31.78-83.06-26.89-91.89,4.31-8.75,14.95-17,26.1-24C-121.93,1132.95-63.43,1118.2-20,1093c37.14-21.44-20.48-42.77,5.63-69,116.8-119,213.64-263.52,327.14-350.53,7-5.44,8.89-14.14,17.26-18.11,7.31-3.46,16.78-4.11,25.7-5.14C444.21,639.67,485,591.82,523,559.74c10-8.35,21.26-15.88,40.16-11.51,24,5.61,54.26,28.66,75.75,49.64C673,631.39,687.47,661.79,698.23,690c24,61.43,45.38,120.59,62.58,178.43,26.81,92.67,45.62,179.31,16.31,277.8-13.36,44.15-17,102.76-89.63,162-60.67,49.75-182.46,69.47-270.08,75.66C257.12,1397,104.06,1396-6.7,1362.95Z"/><path class="cls-9" d="M1788.19,615.14c-53-26.94-106.34-58.19-135.74-54.42-18.23,2.32-25,17.25-38.54,28.34-17.68,14.77-48.26,23.45-82.82,24.39-12.75.34-26.08-.33-37.68,3.32-9.14,2.88-16.68,8.26-25.13,12.93-20.17,11.15-45.44,18.37-71.13,27.1-82,28-175.59,73.09-274.85,134.17-35.5,21.93-71.5,46-115.52,67-53.26,25.33-115.88,44.85-180.45,64.94q-157.43,49-340,106.75c-49.41,15.7-113.16,39.08-135.49,66.58q693.55-66.69,1381.09-131.31c226.52-21.25,453.83-41.94,678.66-63.42,77-7.52,145.67-14.56,84.39-34.55-59.44-19.48-166-43-237-65.36C2078.14,746.51,1917.28,686.76,1788.19,615.14Z"/><path class="cls-9" d="M295.1,604.18c39.61-15.26,79.44-29.91,101.41-24.22,13.62,3.4,18.71,13.23,28.8,20.85,13.21,10.18,36.06,16.89,61.87,19.36,9.53.91,19.49,1.33,28.15,3.85,6.83,2,12.46,5.12,18.77,7.86,15.07,6.55,33.95,11,53.14,16,61.29,15.87,131.18,36.7,205.33,58.56,26.52,7.87,53.41,15.93,86.3,21.95,39.79,7.27,86.57,11.24,134.81,14.66q117.61,8.31,254,12.23c36.92,1.08,84.54,2.69,101.22,7.5Q850.78,794.38,337.13,825c-169.22,10.06-339,20.64-507,30-57.53,3.29-108.82,4.94-63-23.78,44.4-27.77,124-59.89,177.07-83.5C78.48,688.39,198.66,645.08,295.1,604.18Z"/><path class="cls-9" d="M1400.38,693.19c-39.5-14.36-95.42-47.89-108.92-36.39-31,23.58-75.93,1.25-113.93-1.74-32.35-2.27-68.44.48-105.8,1.42-37,.89-75.31,0-104.51-10.89-29.39-10.61-50.86-45.08-65.66-72.46-15.72-27.31-24.77-47.54-50.7-28.11-56,40.91-79.27,45.54-87,41.73-8.56-3.66-1.6-15.77-15.76-5C653.92,655.58,535,736.12,391.39,828.11c-53.95,34.57-112.3,71.16-164.7,111.82-33,25.61-62.83,52.45-93,79.74q-42.71,38.63-87,78.85c-9.28,8.45-19.3,17.71-4.73,21.92,5.86,1.69,13.84,1.9,22.71,1.07,317.81-29.48,643.78-62,967.26-100.23,322.18-37.79,641.86-81.36,916.9-122.16-28.46-13.29-58.58-32.49-95.71-51.85-36.8-19.36-80.61-38.88-128.91-52.62C1612.46,763.62,1488.84,727.55,1400.38,693.19Z"/><path class="cls-10" d="M-252.91,762.89c24-10.52,49.38-21.41,92.42-33.75q29.75-.94,58.46-1.29c48.78-17,91.92-36.16,127.76-55.28,51.14-9.58,96.06-15.23,125.39-13,8.63.62,17.66,1.83,30.82-.79,23-4.54,42-18.36,62.1-21.31,29.64,8.94,60.45,21.7,105.16,29.44,34.85,6.11,98.93-9.9,111,11.23,34.62,56.94,95.29,114.62,199.25,161.61,102.47,46.86,253.55,81.63,434.32,89.55,28.8,1.24,191.37,21.79,395,40.63,198.92,19.2,446.19,33.2,499.59,37.89,89.66,8.5-90-16.1-246.1-46.4-159.29-30.15-293.55-63.93-242.73-45.15,103.59,36.88,186.82,70.94,262.77,102.19-137,7.21-283.9,10.2-427.55,9.26-144-.85-284.64-5.63-416.29-11.86-418.92-20.24-760.68-58.38-1026-108q-97.82-18.28-181.8-38.54c-49.28-11.29-114.41-26.75-150.3-41.08-61.51-23,8.36-6.91,39.23-9.66C-334.72,814.2-297.44,781.62-252.91,762.89Z"/><path class="cls-8" d="M2544.06,949.76c-207.65,1.09-466,1.55-710.58,1.1-246.24-.42-478.65-1.76-673.36-3.56Q990.18,945.74,854,943.83c-337.36-4.72-519-10.89-544.92-17.21"/><path class="cls-11" d="M2544.06,949.76c-207.65,1.09-466,1.55-710.58,1.1-246.24-.42-478.65-1.76-673.36-3.56Q990.18,945.74,854,943.83c-337.36-4.72-519-10.89-544.92-17.21"/><path class="cls-10" d="M537.35,1061.12c47-45.74,114.13-92.46,158.55-134.76,62.75,1.38,132.4,1.37,207.79-17.91,52.82-13.5,102.51-34.91,147.32-54.79,73.66-32.66,138.42-62.78,192.55-92.9,24-13.33,46-26.74,68.55-36.27,21.69-9.17,43.4-14.51,64-19.66,68-17,124.24-32.35,168.62-46.69,3.77-1.22,7.68-2.42,12.8-1.09,5.69,1.48,11.76,5.72,17.67,9.58,44.61,29.56,104.74,49.51,160.6,57.87,20.65,3.1,41.91,5.33,67.14,14.62,13.55,5,26.64,11.36,39.6,17.48,98,46.27,211.95,86.69,341.87,118.72,87.4,20.68,109.73,48,164.51,69.2-81.31,13.21-193.79,9.12-291,7.5-198.88-2.57-372.32-2.29-544.43,4.45-171.37,6.47-341.43,19.39-516.39,35.83-122.57,11.49-247.4,24.45-375.86,39.34-14.28,1.66-29.72,3.62-45.85,10S531,1056.83,537.35,1061.12Z"/><path class="cls-10" d="M-331.69,1400.7c329.91-34.89,676.15-100.25,989.56-154.52,317.05-55.77,601.28-100.45,891.18-128.6,18.9-1.85,39.89-4.2,44.86-9.37,3.09-3.21-.84-6.87-4.81-10.36-41.64-36.59-94.6-74.52-154.24-115.36-21.64-14.82-40.08-32.6-16.56-36.69-200-54.18-386.81-98-476.2-184.49-14.94-15.12-33.19,13.36-52.49,11.69-15.24-1.4-29.68-36-36.36-28C821,782,765.75,798.77,711,801.44c-55.28,2.71-110-8.68-154-27-15.7-6.53-39.41,1.88-59.78,11.49-14.07,6.67-26.82,16.85-39.64,27C287.2,947.08,41.3,1105.48-272.72,1311.72c-31.68,20.79-68.44,52.87-42.67,58.51"/><path class="cls-12" d="M2454.58,907.37c-99.66-17.61-176.47-44.19-245.2-75.4-68.27-31.29-128.48-67.22-184.23-105.4-16.59-11.09-40.23-25.79-46.16-20.84-1.86,1.47-1.88,4.22-.49,7.48,12.48,27-20.53,38.63-61.13,41-38.2,2.18-79.62-3-119.4-1.53-33.08,1.23-67.11,7.34-103.85,12.77-27.09,4-60.71,14.11-93.87,20.75-32.75,6.55-65,9.61-80-2.53-29.17-24.48-77.9,37.74-204.22,88.8-48.22,19.34-86.65,49.28-119.82,82.36-33.58,33.13-61.91,69.4-99.47,102.45l767.67-74.17,383.86-37.09c64-6.18,128.22-12.24,191.94-18.55C2520.61,919.32,2527,919.41,2454.58,907.37Z"/><path class="cls-12" d="M681.05,926.63c-63.26-15.14-119.91-32.44-169.83-44.38-47.48-11.43-91.44-17.67-132.62-27.34-40.77-9.74-78.76-22.89-104.79-49.78-29-28.43-41.8-74.26-71.07-68.83-11.26,2-23.9,11.32-37.27,20.59C71.62,822.19-70.91,896.22-263.08,990c-95.4,46.84-212,102.52-319,184.36,14.16-10.65,113.44-19.31,216.82-26.59,103-7.16,210.13-12.95,231.78-15q231.52-21.45,462.76-42.8,227.57-21,454.88-41.94c37.79-3.3,114.85-6.85,183.74-13.78,68.47-6.83,128.77-17,123.52-31.37-7.67-19.71-79.09-20.43-137.54-27.85C852.78,962.49,761.83,946.06,681.05,926.63Z"/><path class="cls-12" d="M987.5,821c-5.54-1.37-11.17-2.53-15.21-1-7.1,2.61-7,12-10.42,18.86-8.75,17.82-42,18.42-69.88,16.59-54-3.3-106-9.37-165.66,16.39-72.55,30.72-135.76,98.6-241.08,142.82-55.21,22.93-117.49,37.05-182.66,57.06-82.88,25.45-172.69,61.29-270,100.2-19.24,7.7-41.72,17.2-51.54,27.39-15.43,16,13.69,18,39.76,16.24,206.13-13.64,422.54-36.19,631.15-60.16,209-24.1,410.19-49.61,594.78-72.35q135.75-16.76,260.16-31.56c43.37-5.12,86.22-9.89,127-14.73,49.59-5.95,56.28-6,12.23-22.37-103.83-38.28-226.08-49.88-335-79.53-69.19-19-132.62-42.23-186.25-63.51C1071,850,1026.75,830.79,987.5,821Z"/><path class="cls-12" d="M1790,795.95c18.92,26.86-4.62,40.56-39.28,42.79-34.43,2.17-74.46-4.82-110.58-5.21-38.17-.36-74.6,6.88-115.59,15.51-40.59,8.57-85.73,18.52-132.3,22.35-46.2,3.8-90.51,1.12-137,2.68-55.47,1.92-116.39,10.15-186.65,25.69-31.91,7.07-66.31,15.82-103.42,30.39-82,32.07-161.19,86.47-232.86,139.46-13.6,10-28.1,20.85-32.15,29.75-2.87,6.34.08,10.82,3.66,14.86,50.16,56.94,217.7,60.63,384.71,49.73,169.18-11.3,339.36-33.16,505.88-38.63,147-4.79,304-1.21,462.18-13.18,21-1.54,42.34-3.38,60.07-6.85,35.49-7,50.75-19,62.37-30.08,22-20.78,38.16-40.43,48.51-59.33,6.31-11.52,11.65-22.37,24.56-31.22,11.16-7.66,39.85-13.17,31.43-23.68-19.29-21.7-113.81-38.19-169.72-53.69-68.26-18.1-130.23-39.91-185.76-60.73-5.93-2.11-45.27-15.66-78.41-28.59C1815.8,805.14,1788.18,792.94,1790,795.95Z"/><path class="cls-13" d="M1787.89,1115.84c-82.84-14-179-21.88-261.72-29.89-146.86-14.17-282.26-32.81-405.05-55.62-200-36.51-364.69-86.62-488.5-110.55-34.72-6.5-67.22-10.82-90-4-17,5-28,15.86-44.65,23.48-40.59,18.43-106.56,17-165.42,14.66-22.38-.87-45.71-1.84-65.33-9.14-20.89-7.77-34.73-21.93-47.71-35-59.16-58.26-108.71-101.9-166.21-120.24A147.74,147.74,0,0,0,6.4,782.22c-32,.3-74.48,11.25-115.89,17.55-63.76,9.7-117.43,7.63-183.28,14.22-66.5,6.77-153.19,23.45-279.17,68.4-86.13,47.23-139.88,90.3-163.11,127-23.74,36.76-17,67.12,6.2,90.93,55.94,57.63,211.49,76.94,383.43,80.41,173.48,3.34,361.82-7.08,547-11.08,241-5.11,509.36-.08,795.31-6.22C1278.74,1158.22,1578.23,1141.86,1787.89,1115.84Z"/><path class="cls-13" d="M2511.78,984.57c-147.72-28.09-219-32.61-297.76-30.07-75.34,2.37-158.11,11.8-250.25,7.74-43-1.93-85.57-7.06-126.48-10.8-41.28-3.73-80.85-6.07-126.14-2-44.27,3.94-94.5,13.93-152,25.68-57.18,11.73-121.63,25.21-187.27,35.64-128,20.3-255.11,28.36-370.28,30.78-60.91,1.36-119.33,1.28-224,22.52-128.4,26.05-313.88,81.68-500.86,141.86-39.54,12.73-86.67,28.6-105.54,40.8-12.42,8-7.87,11.79-2.21,14.77,42,22.16,127.65,30.46,227.94,32.64,100.73,2.15,216.11-1.81,327.85-4.86,430.52-11.9,846.75-12.42,1305.53-12.32,172.93.12,354.78,0,536-4.62,180.4-4.47,360.14-13.37,510.61-28.11,193.36-19.22,330.41-47.67,313.62-86.59-1.61-4.49-7.5-16.84-31.4-30.06-22.91-13.25-63.83-27.38-112.56-36-59-10.36-131.91-12.26-164.63-15.46-58.49-5.74-121.72-13.81-183.28-22.83C2753,1032.11,2614.1,1003.92,2511.78,984.57Z"/></g></g></g></svg>